<mxfile host="app.diagrams.net" modified="2023-10-05T13:53:20.724Z" agent="Mozilla/5.0 (Windows NT 10.0; Win64; x64; rv:109.0) Gecko/20100101 Firefox/115.0" etag="ivN8cxOiH8cboXWO-k-N" version="21.1.1" type="device">
  <diagram id="QrUexihUdqUOE5VChcOo" name="Page-1">
    <mxGraphModel dx="2140" dy="562" grid="1" gridSize="10" guides="1" tooltips="1" connect="1" arrows="1" fold="1" page="1" pageScale="1" pageWidth="850" pageHeight="1100" math="0" shadow="0">
      <root>
        <mxCell id="0" />
        <mxCell id="1" parent="0" />
        <mxCell id="E7vTJv4fxSm5yAihiK3A-100" value="" style="rounded=1;whiteSpace=wrap;html=1;" parent="1" vertex="1">
          <mxGeometry x="-100" y="110" width="1240" height="580" as="geometry" />
        </mxCell>
        <mxCell id="E7vTJv4fxSm5yAihiK3A-2" value="" style="rounded=1;whiteSpace=wrap;html=1;strokeColor=#6c8ebf;fillColor=#dae8fc;" parent="1" vertex="1">
          <mxGeometry x="230" y="230" width="270" height="300" as="geometry" />
        </mxCell>
        <mxCell id="E7vTJv4fxSm5yAihiK3A-52" value="&lt;div&gt;User Network&lt;/div&gt;&lt;div&gt;10.0.10.0/24&lt;/div&gt;" style="text;html=1;strokeColor=#4789b3;fillColor=default;align=center;verticalAlign=middle;whiteSpace=wrap;rounded=0;" parent="1" vertex="1">
          <mxGeometry x="310" y="190" width="110" height="30" as="geometry" />
        </mxCell>
        <mxCell id="E7vTJv4fxSm5yAihiK3A-99" value="&lt;div&gt;&lt;font style=&quot;font-size: 18px;&quot; color=&quot;#020303&quot;&gt;RAK Metropolitan Skyport Network&lt;br&gt;&lt;/font&gt;&lt;/div&gt;" style="text;html=1;strokeColor=#4789b3;fillColor=none;align=center;verticalAlign=middle;whiteSpace=wrap;rounded=0;fontColor=#4789b3;" parent="1" vertex="1">
          <mxGeometry x="381.32" y="130" width="283.12" height="30" as="geometry" />
        </mxCell>
        <mxCell id="2m6MdkWMeLU3OleFYo92-2" value="" style="shape=image;verticalLabelPosition=bottom;labelBackgroundColor=default;verticalAlign=top;aspect=fixed;imageAspect=0;image=https://assets.ubuntu.com/v1/29985a98-ubuntu-logo32.png;" vertex="1" parent="1">
          <mxGeometry x="330" y="575.65" width="29.25" height="29.25" as="geometry" />
        </mxCell>
        <mxCell id="2m6MdkWMeLU3OleFYo92-3" value="" style="shape=image;verticalLabelPosition=bottom;labelBackgroundColor=default;verticalAlign=top;aspect=fixed;imageAspect=0;image=https://seeklogo.com/images/D/digital-ocean-logo-7B970FE624-seeklogo.com.png;" vertex="1" parent="1">
          <mxGeometry x="375" y="574.65" width="33" height="33" as="geometry" />
        </mxCell>
        <mxCell id="2m6MdkWMeLU3OleFYo92-4" value="" style="shape=image;verticalLabelPosition=bottom;labelBackgroundColor=default;verticalAlign=top;aspect=fixed;imageAspect=0;image=https://upload.wikimedia.org/wikipedia/commons/thumb/5/5f/Windows_logo_-_2012.svg/1024px-Windows_logo_-_2012.svg.png;" vertex="1" parent="1">
          <mxGeometry x="420" y="577.75" width="29.5" height="29.5" as="geometry" />
        </mxCell>
        <mxCell id="2m6MdkWMeLU3OleFYo92-5" value="" style="shape=image;verticalLabelPosition=bottom;labelBackgroundColor=default;verticalAlign=top;aspect=fixed;imageAspect=0;image=https://upload.wikimedia.org/wikipedia/commons/thumb/9/98/WordPress_blue_logo.svg/2048px-WordPress_blue_logo.svg.png;" vertex="1" parent="1">
          <mxGeometry x="465" y="579.36" width="31" height="31" as="geometry" />
        </mxCell>
        <mxCell id="2m6MdkWMeLU3OleFYo92-6" value="" style="shape=image;verticalLabelPosition=bottom;labelBackgroundColor=default;verticalAlign=top;aspect=fixed;imageAspect=0;image=https://upload.wikimedia.org/wikipedia/commons/thumb/f/f5/Jelly-banner-light.svg/2560px-Jelly-banner-light.svg.png;clipPath=inset(1% 66% 0% 0%);" vertex="1" parent="1">
          <mxGeometry x="505" y="575.65" width="35.76" height="34.71" as="geometry" />
        </mxCell>
        <mxCell id="2m6MdkWMeLU3OleFYo92-7" value="" style="shape=image;verticalLabelPosition=bottom;labelBackgroundColor=default;verticalAlign=top;aspect=fixed;imageAspect=0;image=https://upload.wikimedia.org/wikipedia/commons/thumb/2/29/Postgresql_elephant.svg/993px-Postgresql_elephant.svg.png;" vertex="1" parent="1">
          <mxGeometry x="555" y="575.65" width="32.71" height="33.75" as="geometry" />
        </mxCell>
        <mxCell id="2m6MdkWMeLU3OleFYo92-8" value="" style="rounded=1;whiteSpace=wrap;html=1;strokeColor=#6c8ebf;fillColor=#dae8fc;" vertex="1" parent="1">
          <mxGeometry x="540" y="230" width="270" height="300" as="geometry" />
        </mxCell>
        <mxCell id="2m6MdkWMeLU3OleFYo92-9" value="&lt;div&gt;Train Network&lt;/div&gt;&lt;div&gt;10.0.20.0/24&lt;/div&gt;" style="text;html=1;strokeColor=#4789b3;fillColor=default;align=center;verticalAlign=middle;whiteSpace=wrap;rounded=0;" vertex="1" parent="1">
          <mxGeometry x="620" y="190" width="110" height="30" as="geometry" />
        </mxCell>
        <mxCell id="2m6MdkWMeLU3OleFYo92-10" value="" style="rounded=1;whiteSpace=wrap;html=1;strokeColor=#6c8ebf;fillColor=#dae8fc;" vertex="1" parent="1">
          <mxGeometry x="850" y="230" width="270" height="300" as="geometry" />
        </mxCell>
        <mxCell id="2m6MdkWMeLU3OleFYo92-11" value="&lt;div&gt;Guest Network&lt;/div&gt;&lt;div&gt;10.0.30.0/24&lt;/div&gt;" style="text;html=1;strokeColor=#4789b3;fillColor=default;align=center;verticalAlign=middle;whiteSpace=wrap;rounded=0;" vertex="1" parent="1">
          <mxGeometry x="930" y="190" width="110" height="30" as="geometry" />
        </mxCell>
        <mxCell id="2m6MdkWMeLU3OleFYo92-12" value="" style="fontColor=#0066CC;verticalAlign=top;verticalLabelPosition=bottom;labelPosition=center;align=center;html=1;outlineConnect=0;fillColor=#CCCCCC;strokeColor=#6881B3;gradientColor=none;gradientDirection=north;strokeWidth=2;shape=mxgraph.networks.terminal;" vertex="1" parent="1">
          <mxGeometry x="155" y="560" width="80" height="65" as="geometry" />
        </mxCell>
        <mxCell id="2m6MdkWMeLU3OleFYo92-13" value="" style="shape=image;verticalLabelPosition=bottom;labelBackgroundColor=default;verticalAlign=top;aspect=fixed;imageAspect=0;image=https://upload.wikimedia.org/wikipedia/commons/thumb/5/5f/Windows_logo_-_2012.svg/1024px-Windows_logo_-_2012.svg.png;" vertex="1" parent="1">
          <mxGeometry x="180" y="566.5" width="30" height="30" as="geometry" />
        </mxCell>
        <mxCell id="2m6MdkWMeLU3OleFYo92-14" value="&lt;div&gt;System2&lt;/div&gt;&lt;div&gt;10.0.0.2&lt;br&gt;&lt;/div&gt;" style="text;html=1;strokeColor=none;fillColor=none;align=center;verticalAlign=middle;whiteSpace=wrap;rounded=0;" vertex="1" parent="1">
          <mxGeometry x="247.5" y="567.5" width="60" height="30" as="geometry" />
        </mxCell>
        <mxCell id="2m6MdkWMeLU3OleFYo92-15" style="edgeStyle=orthogonalEdgeStyle;rounded=0;orthogonalLoop=1;jettySize=auto;html=1;exitX=1;exitY=0.5;exitDx=0;exitDy=0;exitPerimeter=0;entryX=0;entryY=0.5;entryDx=0;entryDy=0;entryPerimeter=0;" edge="1" parent="1" source="2m6MdkWMeLU3OleFYo92-16" target="2m6MdkWMeLU3OleFYo92-12">
          <mxGeometry relative="1" as="geometry" />
        </mxCell>
        <mxCell id="2m6MdkWMeLU3OleFYo92-16" value="" style="fontColor=#0066CC;verticalAlign=top;verticalLabelPosition=bottom;labelPosition=center;align=center;html=1;outlineConnect=0;fillColor=#CCCCCC;strokeColor=#6881B3;gradientColor=none;gradientDirection=north;strokeWidth=2;shape=mxgraph.networks.terminal;" vertex="1" parent="1">
          <mxGeometry x="-7.5" y="560" width="80" height="65" as="geometry" />
        </mxCell>
        <mxCell id="2m6MdkWMeLU3OleFYo92-17" value="" style="shape=image;verticalLabelPosition=bottom;labelBackgroundColor=default;verticalAlign=top;aspect=fixed;imageAspect=0;image=https://upload.wikimedia.org/wikipedia/commons/thumb/5/5f/Windows_logo_-_2012.svg/1024px-Windows_logo_-_2012.svg.png;" vertex="1" parent="1">
          <mxGeometry x="16.5" y="566.5" width="30" height="30" as="geometry" />
        </mxCell>
        <mxCell id="2m6MdkWMeLU3OleFYo92-18" value="&lt;div&gt;System1&lt;/div&gt;&lt;div&gt;10.0.0.1&lt;br&gt;&lt;/div&gt;" style="text;html=1;strokeColor=none;fillColor=none;align=center;verticalAlign=middle;whiteSpace=wrap;rounded=0;" vertex="1" parent="1">
          <mxGeometry x="-80" y="567.5" width="60" height="30" as="geometry" />
        </mxCell>
        <mxCell id="2m6MdkWMeLU3OleFYo92-19" value="" style="rounded=1;whiteSpace=wrap;html=1;strokeColor=#6c8ebf;fillColor=#dae8fc;" vertex="1" parent="1">
          <mxGeometry x="-80" y="230" width="270" height="300" as="geometry" />
        </mxCell>
        <mxCell id="2m6MdkWMeLU3OleFYo92-20" value="&lt;div&gt;Corporate Network&lt;/div&gt;&lt;div&gt;10.0.0.0/24&lt;/div&gt;" style="text;html=1;strokeColor=#4789b3;fillColor=default;align=center;verticalAlign=middle;whiteSpace=wrap;rounded=0;" vertex="1" parent="1">
          <mxGeometry y="190" width="110" height="30" as="geometry" />
        </mxCell>
      </root>
    </mxGraphModel>
  </diagram>
</mxfile>
